# xmcd
#
# Track frame offsets: 
#        150
#        11865
#        23486
#        34298
#        51755
#        65277
#        79612
#        91692
#        104940
#        120776
#        137208
#        144832
#        155230
#        165859
#
# Disc length: 2354 seconds
#
# Revision: 2
# Processed by: cddbd v1.5.2PL0 Copyright (c) Steve Scherf et al.
# Submitted via: ExactAudioCopy v0.99pb5
#
DISCID=ab09300e
DTITLE=Jim and Jennie and the Pinetops - One More in the Cabin
DYEAR=2002
DGENRE=Bluegrass
TTITLE0=Driving Rain
TTITLE1=Pretty Valley
TTITLE2=One More in the Cabin
TTITLE3=The Light of Day
TTITLE4=My Grey and Fading Dreams
TTITLE5=Elmore Mountain Road
TTITLE6=Firetower
TTITLE7=Who's Your Daddy, Little Girl?
TTITLE8=Insult to Injury
TTITLE9=Mourning Dove
TTITLE10=Cider Press
TTITLE11=The Miller and the Hound
TTITLE12=The Road to Paradise
TTITLE13=Deep Running River
EXTD=
EXTT0=
EXTT1=
EXTT2=
EXTT3=
EXTT4=
EXTT5=
EXTT6=
EXTT7=
EXTT8=
EXTT9=
EXTT10=
EXTT11=
EXTT12=
EXTT13=
PLAYORDER=
